<svg width="2000" height="643" viewBox="0 0 2000 643" fill="none" xmlns="http://www.w3.org/2000/svg">
<path d="M1903.87 184.54V397.848C1903.87 419.6 1918.61 432.932 1940.36 432.932C1966.32 432.932 1984.56 418.197 1997.89 387.323L2000 388.025C1987.37 447.667 1956.5 478.541 1908.78 478.541C1869.49 478.541 1839.32 451.175 1839.32 409.075V171.208H1789.26V143.142C1834.87 122.091 1877.21 81.3945 1903.87 25.9624V143.142H1996.49V171.208H1880.01V184.54H1903.87Z" fill="black"/>
<path d="M1679.91 166.296C1651.14 166.296 1630.79 183.838 1630.79 211.203C1630.79 235.06 1645.53 250.497 1671.49 261.022L1752.89 293.299C1795.69 310.139 1819.54 338.206 1819.54 376.797C1819.54 438.545 1766.22 478.54 1707.98 478.54C1662.37 478.54 1630.09 457.49 1601.32 421.704V441.351C1608.34 449.07 1614.66 455.385 1620.27 460.296L1592.79 472.927L1571.74 469.418L1571.85 354.344H1595.71L1608.34 380.306C1629.39 423.81 1661.67 448.368 1703.07 448.368C1740.96 448.368 1765.52 429.423 1765.52 398.549C1765.52 374.692 1746.57 359.957 1717.1 348.731L1646.93 322.067C1602.03 305.227 1577.47 275.055 1577.47 235.06C1577.47 175.418 1620.97 137.527 1677.81 137.527C1719.91 137.527 1750.78 157.174 1776.74 191.556V171.208C1770.43 164.191 1762.01 156.473 1755.69 151.561L1803.3 136.124L1802.7 258.215H1778.85L1768.32 235.06C1748.68 190.855 1717.8 166.296 1679.91 166.296Z" fill="black"/>
<path d="M1470.15 69.4655V0H1538.91V69.4655H1470.15ZM1415.42 167.699L1537.51 136.124V406.268C1537.51 435.036 1550.84 450.473 1578.21 453.28L1592.94 454.683V472.927H1417.53V454.683L1432.26 453.28C1459.63 450.473 1472.96 435.036 1472.96 406.268V217.518C1472.96 198.573 1468.05 192.96 1440.68 179.628L1415.42 167.699Z" fill="black"/>
<path d="M1432.5 286.282H1191.83V299.614H1214.28C1216.39 380.306 1259.89 436.44 1320.23 436.44C1368.65 436.44 1403.03 417.495 1424.78 378.201L1426.19 378.903C1414.26 439.948 1366.54 479.944 1307.6 479.944C1210.77 479.944 1146.22 412.583 1146.22 312.244C1146.22 216.115 1215.68 136.124 1299.18 136.124C1380.58 136.124 1435.31 197.872 1432.5 286.282ZM1294.27 164.191C1250.77 164.191 1222 199.275 1215.68 261.724H1363.74C1363.74 204.888 1334.97 164.191 1294.27 164.191Z" fill="black"/>
<path d="M995.634 642.731C898.102 642.731 845.477 616.068 845.477 566.249C845.477 538.884 863.72 522.745 929.677 493.275L943.711 486.96L926.87 482.048L902.312 492.573C884.068 482.048 874.947 467.313 874.947 446.965C874.947 411.881 910.03 378.201 961.954 359.957L948.622 352.941L928.274 360.659C893.892 339.609 873.543 303.824 873.543 261.022C873.543 190.855 932.484 136.826 1008.97 136.826C1037.03 136.826 1062.99 143.843 1084.04 155.771C1107.9 124.196 1133.16 109.461 1162.63 109.461C1189.3 109.461 1208.94 127.002 1208.94 150.859C1208.94 169.804 1194.21 184.539 1176.67 184.539C1155.62 184.539 1140.18 164.893 1146.49 146.649H1155.62V135.422C1135.27 135.422 1120.53 143.141 1100.18 166.296C1127.55 187.346 1143.69 219.623 1143.69 256.812C1143.69 326.979 1084.04 381.709 1008.97 381.709C994.231 381.709 980.198 380.306 967.567 377.499C943.009 387.323 925.467 404.864 925.467 419.599C925.467 436.44 940.904 445.561 973.181 447.666L1074.92 453.981C1150 458.191 1182.98 481.347 1182.98 529.762C1182.98 599.227 1110.71 642.731 995.634 642.731ZM1009.67 355.747C1049.66 355.747 1076.33 318.559 1076.33 262.425C1076.33 201.38 1049.66 163.489 1006.16 163.489C966.164 163.489 940.904 199.275 940.904 256.812C940.904 317.857 967.567 355.747 1009.67 355.747ZM1010.37 614.664C1084.75 614.664 1129.65 591.509 1129.65 552.917C1129.65 533.27 1117.02 522.043 1092.46 520.64L966.866 511.518C957.042 510.817 947.219 509.413 939.501 507.308C911.434 522.745 898.804 538.884 898.804 557.829C898.804 593.614 940.202 614.664 1010.37 614.664Z" fill="black"/>
<path d="M803.123 184.54V397.848C803.123 419.6 817.858 432.932 839.61 432.932C865.572 432.932 871.942 424.541 896.5 399.983C883.87 459.625 855.748 478.541 808.035 478.541C768.741 478.541 738.569 451.175 738.569 409.075V171.208H680.33C724.536 142.44 776.459 81.3945 803.123 25.9624V143.142H895.744V171.208H779.266V184.54H803.123Z" fill="black"/>
<path d="M600.379 69.4655V0H669.143V69.4655H600.379ZM545.649 167.699L667.74 136.124V406.268C667.74 435.036 681.072 450.473 708.437 453.28L723.172 454.683V472.927H547.754V454.683L562.489 453.28C589.854 450.473 603.186 435.036 603.186 406.268V217.518C603.186 198.573 598.274 192.96 570.909 179.628L545.649 167.699Z" fill="black"/>
<path d="M562.73 286.282H322.056V299.614H344.51C346.615 380.306 390.118 436.44 450.462 436.44C498.877 436.44 533.259 417.495 555.011 378.201L556.415 378.903C544.486 439.948 496.772 479.944 437.832 479.944C341.001 479.944 276.448 412.583 276.448 312.244C276.448 216.115 345.913 136.124 429.412 136.124C510.806 136.124 565.536 197.872 562.73 286.282ZM424.5 164.191C380.997 164.191 352.228 199.275 345.913 261.724H493.966C493.966 204.888 465.197 164.191 424.5 164.191Z" fill="black"/>
<path d="M197.17 182.435H218.22L226.64 169.805H139.633C87.709 169.805 59.6421 190.153 46.3103 235.762L35.7853 272.249H14.7351L18.9451 143.141H298.912L101.742 433.633H80.6922L72.2722 446.263H169.103C221.728 446.263 253.303 421.003 268.039 368.378C268.039 368.378 273.894 351.525 275.757 340.311C276.481 335.952 277.16 329.084 277.16 329.084L297.509 340.311L283.475 472.927H0L197.17 182.435Z" fill="black"/>
</svg>
